<svg xmlns="http://www.w3.org/2000/svg" viewBox="0 0 200 240" fill="none" role="img" aria-label="Bước chân đầu tiên">
  <defs>
    <linearGradient id="bg" x1="100" y1="0" x2="100" y2="240" gradientUnits="userSpaceOnUse">
      <stop stop-color="#2a2318"/>
      <stop offset="1" stop-color="#12100c"/>
    </linearGradient>
    <radialGradient id="spot" cx="0" cy="0" r="1" gradientUnits="userSpaceOnUse" gradientTransform="translate(100 108) rotate(90) scale(95 78)">
      <stop stop-color="#c4a35a" stop-opacity="0.14"/>
      <stop offset="0.55" stop-color="#c4a35a" stop-opacity="0.04"/>
      <stop offset="1" stop-color="#12100c" stop-opacity="0"/>
    </radialGradient>
    <linearGradient id="frame" x1="100" y1="36" x2="100" y2="196" gradientUnits="userSpaceOnUse">
      <stop stop-color="#e8d4a0" stop-opacity="0.55"/>
      <stop offset="0.5" stop-color="#c4a35a" stop-opacity="0.35"/>
      <stop offset="1" stop-color="#8a7040" stop-opacity="0.45"/>
    </linearGradient>
    <linearGradient id="frameInner" x1="100" y1="48" x2="100" y2="184" gradientUnits="userSpaceOnUse">
      <stop stop-color="#2a2318" stop-opacity="0.15"/>
      <stop offset="1" stop-color="#12100c" stop-opacity="0.55"/>
    </linearGradient>
    <filter id="mist" x="-20%" y="-20%" width="140%" height="140%">
      <feGaussianBlur stdDeviation="6"/>
    </filter>
    <filter id="soft" x="-10%" y="-10%" width="120%" height="120%">
      <feGaussianBlur stdDeviation="2.5"/>
    </filter>
    <clipPath id="medallion">
      <path d="M100 42 L148 62 L158 108 L148 154 L100 174 L52 154 L42 108 L52 62 Z"/>
    </clipPath>
  </defs>

  <rect width="200" height="240" fill="url(#bg)"/>
  <ellipse cx="100" cy="118" rx="92" ry="88" fill="url(#spot)"/>

  <!-- Ornate martial medallion frame -->
  <path d="M100 38 L152 60 L164 108 L152 156 L100 178 L48 156 L36 108 L48 60 Z" stroke="url(#frame)" stroke-width="2.25" stroke-linejoin="round"/>
  <path d="M100 44 L148 64 L158 108 L148 152 L100 172 L52 152 L42 108 L52 64 Z" stroke="#c4a35a" stroke-opacity="0.18" stroke-width="1"/>
  <path d="M100 48 L144 66 L152 108 L144 150 L100 168 L56 150 L48 108 L56 66 Z" fill="url(#frameInner)"/>

  <!-- Corner ornaments -->
  <g stroke="#c4a35a" stroke-opacity="0.35" stroke-width="1" fill="none">
    <path d="M100 44 L104 52 L96 52 Z"/>
    <path d="M148 64 L140 68 L140 60 Z"/>
    <path d="M152 108 L144 104 L144 112 Z"/>
    <path d="M100 168 L96 160 L104 160 Z"/>
    <path d="M52 152 L60 148 L60 156 Z"/>
    <path d="M48 108 L56 112 L56 104 Z"/>
    <path d="M52 64 L60 68 L60 60 Z"/>
  </g>

  <g clip-path="url(#medallion)">
    
    <rect x="0" y="0" width="200" height="200" fill="#1e1810"/>
    <ellipse cx="100" cy="58" rx="62" ry="28" fill="#d4af37" fill-opacity="0.16"/>
    <circle cx="132" cy="46" r="16" fill="#f0d890" fill-opacity="0.22"/>
    <path d="M28 148 C48 132 72 138 100 128 C128 118 152 124 172 112" stroke="#5c4a36" stroke-width="7" stroke-linecap="round"/>
    <path d="M38 142 C56 128 78 134 100 126 C122 118 144 124 162 114" stroke="#8a7355" stroke-width="4" stroke-linecap="round"/>
    <path d="M54 136 C68 126 84 130 100 124 C116 118 132 122 146 114" stroke="#c4a35a" stroke-opacity="0.45" stroke-width="1.5" stroke-linecap="round"/>
    <path d="M62 92 C72 78 88 72 100 76 C112 80 126 74 136 62" stroke="#7a6a55" stroke-opacity="0.55" stroke-width="1.5" stroke-linecap="round"/>
    <path d="M78 88 L82 72 L86 88 Z" fill="#5a4838" fill-opacity="0.65"/>
    <path d="M114 84 L118 68 L122 84 Z" fill="#5a4838" fill-opacity="0.55"/>
    <ellipse cx="96" cy="132" rx="11" ry="6" fill="#c4a35a" fill-opacity="0.35"/>
    <path d="M90 132 C92 124 96 120 100 124 C104 128 102 134 98 136" stroke="#e8dcc8" stroke-width="1.5" stroke-linecap="round"/>
    <path d="M88 124 L92 118 L96 124" stroke="#d4af37" stroke-opacity="0.5" stroke-width="1" stroke-linecap="round"/>
  </g>

  <!-- Atmospheric foreground mist -->
  <path d="M0 188 C34 172 66 182 100 176 C134 170 166 180 200 168 V240 H0 Z" fill="#12100c" fill-opacity="0.85"/>
  <ellipse cx="100" cy="182" rx="78" ry="18" fill="#c4a35a" fill-opacity="0.08" filter="url(#mist)"/>
</svg>
