<svg xmlns="http://www.w3.org/2000/svg" viewBox="0 0 200 240" fill="none" role="img" aria-label="Bền bỉ">
  <defs>
    <linearGradient id="bg" x1="100" y1="0" x2="100" y2="240" gradientUnits="userSpaceOnUse">
      <stop stop-color="#1e2428"/>
      <stop offset="1" stop-color="#0e1216"/>
    </linearGradient>
    <radialGradient id="spot" cx="0" cy="0" r="1" gradientUnits="userSpaceOnUse" gradientTransform="translate(100 108) rotate(90) scale(95 78)">
      <stop stop-color="#8a9aa8" stop-opacity="0.14"/>
      <stop offset="0.55" stop-color="#8a9aa8" stop-opacity="0.04"/>
      <stop offset="1" stop-color="#0e1216" stop-opacity="0"/>
    </radialGradient>
    <linearGradient id="frame" x1="100" y1="36" x2="100" y2="196" gradientUnits="userSpaceOnUse">
      <stop stop-color="#e8d4a0" stop-opacity="0.55"/>
      <stop offset="0.5" stop-color="#c4a35a" stop-opacity="0.35"/>
      <stop offset="1" stop-color="#8a7040" stop-opacity="0.45"/>
    </linearGradient>
    <linearGradient id="frameInner" x1="100" y1="48" x2="100" y2="184" gradientUnits="userSpaceOnUse">
      <stop stop-color="#1e2428" stop-opacity="0.15"/>
      <stop offset="1" stop-color="#0e1216" stop-opacity="0.55"/>
    </linearGradient>
    <filter id="mist" x="-20%" y="-20%" width="140%" height="140%">
      <feGaussianBlur stdDeviation="6"/>
    </filter>
    <filter id="soft" x="-10%" y="-10%" width="120%" height="120%">
      <feGaussianBlur stdDeviation="2.5"/>
    </filter>
    <clipPath id="medallion">
      <path d="M100 42 L148 62 L158 108 L148 154 L100 174 L52 154 L42 108 L52 62 Z"/>
    </clipPath>
  </defs>

  <rect width="200" height="240" fill="url(#bg)"/>
  <ellipse cx="100" cy="118" rx="92" ry="88" fill="url(#spot)"/>

  <!-- Ornate martial medallion frame -->
  <path d="M100 38 L152 60 L164 108 L152 156 L100 178 L48 156 L36 108 L48 60 Z" stroke="url(#frame)" stroke-width="2.25" stroke-linejoin="round"/>
  <path d="M100 44 L148 64 L158 108 L148 152 L100 172 L52 152 L42 108 L52 64 Z" stroke="#8a9aa8" stroke-opacity="0.18" stroke-width="1"/>
  <path d="M100 48 L144 66 L152 108 L144 150 L100 168 L56 150 L48 108 L56 66 Z" fill="url(#frameInner)"/>

  <!-- Corner ornaments -->
  <g stroke="#c4a35a" stroke-opacity="0.35" stroke-width="1" fill="none">
    <path d="M100 44 L104 52 L96 52 Z"/>
    <path d="M148 64 L140 68 L140 60 Z"/>
    <path d="M152 108 L144 104 L144 112 Z"/>
    <path d="M100 168 L96 160 L104 160 Z"/>
    <path d="M52 152 L60 148 L60 156 Z"/>
    <path d="M48 108 L56 112 L56 104 Z"/>
    <path d="M52 64 L60 68 L60 60 Z"/>
  </g>

  <g clip-path="url(#medallion)">
    
    <rect x="0" y="0" width="200" height="200" fill="#141a1e"/>
    <path d="M16 156 L54 88 L88 118 L118 68 L154 112 L184 92 V156 H16 Z" fill="#3a4850" fill-opacity="0.85"/>
    <path d="M16 156 L54 88 L88 118 L118 68 L154 112 L184 92" stroke="#9aacb8" stroke-opacity="0.4" stroke-width="1.5" stroke-linejoin="round"/>
    <path d="M34 148 L58 108 L78 124 L98 98 L118 118 L142 96" stroke="#c4a35a" stroke-opacity="0.35" stroke-width="1.5" stroke-linecap="round" stroke-dasharray="3 5"/>
    <path d="M88 118 L88 148" stroke="#d4af37" stroke-opacity="0.45" stroke-width="1.5" stroke-linecap="round"/>
    <ellipse cx="100" cy="148" rx="70" ry="16" fill="#8a9aa8" fill-opacity="0.18" filter="url(#mist)"/>
    <path d="M72 148 C78 138 84 134 90 136" stroke="#b8c8d0" stroke-opacity="0.35" stroke-width="1" stroke-linecap="round"/>
    <circle cx="118" cy="98" r="2" fill="#d4af37" fill-opacity="0.7"/>
  </g>

  <!-- Atmospheric foreground mist -->
  <path d="M0 188 C34 172 66 182 100 176 C134 170 166 180 200 168 V240 H0 Z" fill="#0e1216" fill-opacity="0.85"/>
  <ellipse cx="100" cy="182" rx="78" ry="18" fill="#8a9aa8" fill-opacity="0.08" filter="url(#mist)"/>
</svg>
