<svg xmlns="http://www.w3.org/2000/svg" viewBox="0 0 200 240" fill="none" role="img" aria-label="Thanh khiết">
  <defs>
    <linearGradient id="bg" x1="100" y1="0" x2="100" y2="240" gradientUnits="userSpaceOnUse">
      <stop stop-color="#1a1e22"/>
      <stop offset="1" stop-color="#080a0c"/>
    </linearGradient>
    <radialGradient id="spot" cx="0" cy="0" r="1" gradientUnits="userSpaceOnUse" gradientTransform="translate(100 108) rotate(90) scale(95 78)">
      <stop stop-color="#b8c8d8" stop-opacity="0.14"/>
      <stop offset="0.55" stop-color="#b8c8d8" stop-opacity="0.04"/>
      <stop offset="1" stop-color="#080a0c" stop-opacity="0"/>
    </radialGradient>
    <linearGradient id="frame" x1="100" y1="36" x2="100" y2="196" gradientUnits="userSpaceOnUse">
      <stop stop-color="#e8d4a0" stop-opacity="0.55"/>
      <stop offset="0.5" stop-color="#c4a35a" stop-opacity="0.35"/>
      <stop offset="1" stop-color="#8a7040" stop-opacity="0.45"/>
    </linearGradient>
    <linearGradient id="frameInner" x1="100" y1="48" x2="100" y2="184" gradientUnits="userSpaceOnUse">
      <stop stop-color="#1a1e22" stop-opacity="0.15"/>
      <stop offset="1" stop-color="#080a0c" stop-opacity="0.55"/>
    </linearGradient>
    <filter id="mist" x="-20%" y="-20%" width="140%" height="140%">
      <feGaussianBlur stdDeviation="6"/>
    </filter>
    <filter id="soft" x="-10%" y="-10%" width="120%" height="120%">
      <feGaussianBlur stdDeviation="2.5"/>
    </filter>
    <clipPath id="medallion">
      <path d="M100 42 L148 62 L158 108 L148 154 L100 174 L52 154 L42 108 L52 62 Z"/>
    </clipPath>
  </defs>

  <rect width="200" height="240" fill="url(#bg)"/>
  <ellipse cx="100" cy="118" rx="92" ry="88" fill="url(#spot)"/>

  <!-- Ornate martial medallion frame -->
  <path d="M100 38 L152 60 L164 108 L152 156 L100 178 L48 156 L36 108 L48 60 Z" stroke="url(#frame)" stroke-width="2.25" stroke-linejoin="round"/>
  <path d="M100 44 L148 64 L158 108 L148 152 L100 172 L52 152 L42 108 L52 64 Z" stroke="#b8c8d8" stroke-opacity="0.18" stroke-width="1"/>
  <path d="M100 48 L144 66 L152 108 L144 150 L100 168 L56 150 L48 108 L56 66 Z" fill="url(#frameInner)"/>

  <!-- Corner ornaments -->
  <g stroke="#c4a35a" stroke-opacity="0.35" stroke-width="1" fill="none">
    <path d="M100 44 L104 52 L96 52 Z"/>
    <path d="M148 64 L140 68 L140 60 Z"/>
    <path d="M152 108 L144 104 L144 112 Z"/>
    <path d="M100 168 L96 160 L104 160 Z"/>
    <path d="M52 152 L60 148 L60 156 Z"/>
    <path d="M48 108 L56 112 L56 104 Z"/>
    <path d="M52 64 L60 68 L60 60 Z"/>
  </g>

  <g clip-path="url(#medallion)">
    
    <rect x="0" y="0" width="200" height="200" fill="#0a1014"/>
    <ellipse cx="100" cy="128" rx="52" ry="14" fill="#688898" fill-opacity="0.25"/>
    <ellipse cx="100" cy="124" rx="42" ry="10" fill="#88a8b8" fill-opacity="0.18"/>
    <circle cx="100" cy="116" r="38" fill="#e8eef4" fill-opacity="0.08"/>
    <g fill="#d8e4ec" fill-opacity="0.58">
      <path d="M100 74 C94 88 94 100 100 114 C106 100 106 88 100 74"/>
      <path d="M100 74 C112 80 120 90 118 102 C110 94 104 84 100 74" transform="rotate(45 100 116)"/>
      <path d="M100 74 C112 80 120 90 118 102 C110 94 104 84 100 74" transform="rotate(90 100 116)"/>
      <path d="M100 74 C112 80 120 90 118 102 C110 94 104 84 100 74" transform="rotate(135 100 116)"/>
      <path d="M100 74 C112 80 120 90 118 102 C110 94 104 84 100 74" transform="rotate(180 100 116)"/>
      <path d="M100 74 C112 80 120 90 118 102 C110 94 104 84 100 74" transform="rotate(225 100 116)"/>
      <path d="M100 74 C112 80 120 90 118 102 C110 94 104 84 100 74" transform="rotate(270 100 116)"/>
      <path d="M100 74 C112 80 120 90 118 102 C110 94 104 84 100 74" transform="rotate(315 100 116)"/>
    </g>
    <circle cx="100" cy="108" r="6" fill="#f0f4f8" fill-opacity="0.78"/>
    <circle cx="100" cy="108" r="2.5" fill="#d4af37" fill-opacity="0.85"/>
  </g>

  <!-- Atmospheric foreground mist -->
  <path d="M0 188 C34 172 66 182 100 176 C134 170 166 180 200 168 V240 H0 Z" fill="#080a0c" fill-opacity="0.85"/>
  <ellipse cx="100" cy="182" rx="78" ry="18" fill="#b8c8d8" fill-opacity="0.08" filter="url(#mist)"/>
</svg>
